<svg width="38" height="38" viewBox="0 0 38 38" fill="none" xmlns="http://www.w3.org/2000/svg">
<g clip-path="url(#clip0_151_238)">
<path d="M33.5469 0H4.45312C1.99373 0 0 1.99373 0 4.45312V33.5469C0 36.0063 1.99373 38 4.45312 38H33.5469C36.0063 38 38 36.0063 38 33.5469V4.45312C38 1.99373 36.0063 0 33.5469 0Z" fill="#FF3860"/>
<path d="M5.46484 13.6484C5.35091 13.3477 5.45801 13.1973 5.78613 13.1973H6.87305C7.17839 13.1973 7.38802 13.3545 7.50195 13.6689L9.59375 19.377C9.69857 19.6686 9.76009 19.8646 9.77832 19.9648C9.79655 20.0605 9.81706 20.2223 9.83984 20.4502H9.86719C9.88997 20.2223 9.91048 20.0605 9.92871 19.9648C9.94694 19.8646 10.0085 19.6686 10.1133 19.377L12.2051 13.6689C12.319 13.3545 12.5286 13.1973 12.834 13.1973H13.9209C14.249 13.1973 14.3561 13.3477 14.2422 13.6484L10.9746 22.4463C10.8379 22.8154 10.6237 23 10.332 23H9.375C9.08333 23 8.86914 22.8154 8.73242 22.4463L5.46484 13.6484ZM15.9375 23C15.6185 23 15.459 22.8291 15.459 22.4873V13.71C15.459 13.3682 15.6185 13.1973 15.9375 13.1973H16.9766C17.2956 13.1973 17.4551 13.3682 17.4551 13.71V17.0527H21.1328V13.71C21.1328 13.3682 21.2923 13.1973 21.6113 13.1973H22.6504C22.9694 13.1973 23.1289 13.3682 23.1289 13.71V22.4873C23.1289 22.8291 22.9694 23 22.6504 23H21.6113C21.2923 23 21.1328 22.8291 21.1328 22.4873V18.748H17.4551V22.4873C17.4551 22.8291 17.2956 23 16.9766 23H15.9375ZM24.9678 14.9473C24.626 14.9473 24.4551 14.7992 24.4551 14.5029V13.6416C24.4551 13.3454 24.626 13.1973 24.9678 13.1973H31.9951C32.3369 13.1973 32.5078 13.3454 32.5078 13.6416V14.5029C32.5078 14.7992 32.3369 14.9473 31.9951 14.9473H29.4795V22.624C29.4795 22.8747 29.3656 23 29.1377 23H27.8252C27.5973 23 27.4834 22.8747 27.4834 22.624V14.9473H24.9678Z" fill="white"/>
</g>
<defs>
<clipPath id="clip0_151_238">
<rect width="38" height="38" fill="white"/>
</clipPath>
</defs>
</svg>
